<?xml version="1.0" encoding="UTF-8"?>
<svg version="1.1" viewBox="0 0 2048 2048" width="720" height="720" xmlns="http://www.w3.org/2000/svg">
<path transform="translate(0)" d="m0 0h2048v2048h-2048z" fill="#2a2a2aa1"/>
<path transform="translate(1247,618)" d="m0 0h21l18 3 17 5 20 9 52 30 24 14 28 16 71 41 21 12 72 42 49 28 26 15 22 13 25 14 22 13 52 30 16 10 13 10 10 9 10 12 9 14 8 16 6 20 3 17v27l-3 17-5 17-8 17-12 18-11 12-7 7-12 9-13 8-14 7-25 7-8 1h-27l-19-3-17-5-27-13-27-16-23-13-48-28-23-13-24-14-26-15-53-31-26-15-53-31-28-16-104-60-19-11-16-10-13-10-10-9-9-10-10-15-10-21-6-22-2-13v-23l3-20 7-21 9-17 13-18 11-12 17-13 18-10 19-7 19-4z" fill="#0E9B5D"/>
<path transform="translate(304,890)" d="m0 0h25l19 3 18 5 20 9 14 8 20 12 23 13 19 11 53 31 23 13 17 10 44 26 16 9 24 14 52 30 19 11 21 12 48 28 26 15 28 16 19 11 16 11 14 11 9 9 9 12 10 17 8 21 4 17 1 7v28l-3 17-5 16-10 21-10 14-11 13-8 7-12 9-15 9-15 6-17 5-20 3h-16l-19-3-20-6-16-7-21-12-17-10-28-16-24-14-23-13-19-11-24-14-78-45-24-14-52-30-19-11-28-16-17-10-26-15-24-14-23-13-26-15-17-12-13-11-9-10-10-15-10-19-6-20-3-16v-28l4-21 8-22 9-16 14-18 11-11 12-9 13-8 14-7 18-5z" fill="#4487F7"/>
<path transform="translate(774,618)" d="m0 0h29l18 3 21 7 19 10 13 9 13 12 7 8 12 18 8 16 6 18 3 15 1 12v13l-2 18-6 21-8 18-9 15-9 11-10 10-18 13-13 8-26 15-24 14-25 14-22 13-19 11-52 30-24 14-26 15-28 16-16 9-14-7-13-8-26-15-21-12-24-14-29-17-42-24-15-9-14-8-16-8-13-5-12-3-19-3h-25l-20 4-16 4 4-4 28-16 29-17 52-30 24-14 14-8 24-14 25-14 22-13 28-16 26-15 24-14 28-16 24-14 35-20 24-14 28-16 18-10 19-9 18-5z" fill="#EA4535"/>
<path transform="translate(1459,1024)" d="m0 0 5 2 16 9 45 26 17 10 23 13 15 9 42 24 27 16 25 13 13 5 21 5 9 1h27l16-3 17-5 2 1-11 7-13 8-19 10-22 13-28 16-24 14-23 13-24 14-26 15-24 14-28 16-22 13-49 28-26 15-21 12-29 17-24 14-16 9-21 12-15 8-19 7-17 4-5 1h-28l-18-3-19-6-21-10-13-10-12-11-7-7-10-14-8-13-8-20-4-17-2-15v-17l3-21 5-16 7-17 10-16 11-13 10-10 14-10 19-12 23-13 21-12 24-14 18-10 15-9 14-8 26-15 13-8 11-6 24-14 16-9 24-14 23-13z" fill="#FFBD06"/>
<path transform="translate(2047,1798)" d="m0 0h1v250h-247v-1l36-6 23-6 25-9 25-12 21-13 19-14 14-13 8-7 11-12 13-17 10-15 9-15 13-27 10-31 5-23z" fill="#000100"/>
<path transform="translate(0,1802)" d="m0 0h1l6 37 7 25 8 22 8 16 8 15 11 17 13 17 11 12 9 10 8 7 13 11 18 13 22 13 22 10 23 8 18 5 23 4 20 3v1h-249z" fill="#000100"/>
<path transform="translate(1803)" d="m0 0h245v248h-1l-4-28-6-26-9-27-12-26-14-23-12-16-11-13-12-13-12-11-14-11-16-11-17-10-16-8-14-6-24-8-20-5-31-5z" fill="#000100"/>
<path transform="translate(0)" d="m0 0h243v1l-34 6-26 7-21 8-21 10-17 10-17 12-11 9-10 9-8 7-15 16-15 20-13 21-14 28-11 33-5 22-4 25h-1z"/>
</svg>
